<?xml version="1.0" encoding="utf-8"?>
<svg viewBox="6.9906 11 242.2024 234" width="242.2024" height="234" xmlns="http://www.w3.org/2000/svg">
  <g>
    <ellipse cx="131" cy="128" rx="117" ry="117" style="fill: none; stroke: rgb(255, 255, 255); stroke-width: 16px;"/>
    <path d="M 57.528 79.546 C 106.672 48.1 232.538 30.973 248.424 57.888 C 256.85 73.992 157.186 102.908 112.072 118.726 C 100.149 122.906 85.656 126.407 85.768 128.711 C 85.864 130.693 95.35 130.936 100 131.009 C 122.104 131.357 180.319 134.795 177.552 154.921 C 172.597 190.966 68.733 213.505 53.667 216.511 C 38.872 219.327 8.057 222.211 6.997 215.476 C 6.518 208.791 33.044 207.381 58.872 204.355 C 102.739 200 220.901 201.468 249.193 205.66" style="fill: none; stroke: rgb(255, 255, 255); stroke-linecap: round; stroke-width: 12px;"/>
    <path d="M 125.099 79.164 L 69.662 189.263" style="fill: none; stroke: rgb(255, 255, 255); stroke-width: 16px;"/>
  </g>
</svg>