<?xml version="1.0" encoding="utf-8"?>
<svg viewBox="0 0 373.5635 348" width="373.5635" height="348" xmlns="http://www.w3.org/2000/svg">
  <ellipse style="stroke: #eeeeee; fill: none" cx="188" cy="188" rx="160" ry="160" />
  <g fill="#eeeeee" fill-opacity="1" >
    <g transform="translate(1.98776, 184.831802)">
      <g>
        <path d="M 204.953125 19.09375 C 205.023438 19.132812 205.078125 19.222656 205.109375 19.359375 C 205.140625 19.492188 205.15625 19.597656 205.15625 19.671875 C 205.09375 19.804688 205.023438 19.910156 204.953125 19.984375 C 204.878906 20.066406 204.789062 20.132812 204.6875 20.1875 C 204.3125 20.34375 203.941406 20.398438 203.578125 20.359375 C 203.191406 20.359375 202.828125 20.335938 202.484375 20.296875 C 202.304688 20.265625 202.160156 20.25 202.046875 20.25 C 200.265625 20.070312 198.492188 19.878906 196.734375 19.671875 C 192.597656 19.253906 188.492188 18.851562 184.421875 18.46875 C 176.492188 17.757812 168.554688 17.109375 160.609375 16.515625 C 149.492188 15.742188 138.351562 15.148438 127.1875 14.734375 C 119.1875 14.441406 111.1875 14.226562 103.1875 14.09375 C 102.300781 14.0625 101.410156 14.046875 100.515625 14.046875 C 99.585938 14.046875 98.6875 14.023438 97.8125 13.984375 C 92.375 13.847656 86.9375 13.78125 81.5 13.78125 L 81.390625 13.78125 C 78.191406 13.78125 75.007812 13.847656 71.84375 13.984375 C 70.65625 14.023438 69.5 14.046875 68.375 14.046875 C 66.9375 14.078125 65.484375 14.351562 64.015625 14.875 C 52.960938 18.738281 41.800781 21.582031 30.53125 23.40625 C 27.269531 23.9375 24.019531 24.382812 20.78125 24.75 C 17.550781 25.113281 14.3125 25.296875 11.0625 25.296875 C 10.007812 25.296875 8.953125 25.28125 7.890625 25.25 C 6.304688 25.25 4.773438 25.035156 3.296875 24.609375 C 2.703125 24.472656 2.148438 24.28125 1.640625 24.03125 C 1.179688 23.863281 0.789062 23.617188 0.46875 23.296875 C 0.15625 22.984375 0.0195312 22.550781 0.0625 22 C 0.15625 21.457031 0.390625 20.992188 0.765625 20.609375 C 1.140625 20.234375 1.5625 19.921875 2.03125 19.671875 C 3.507812 18.828125 5.0625 18.265625 6.6875 17.984375 C 7.488281 17.765625 8.3125 17.570312 9.15625 17.40625 C 11.894531 16.769531 14.65625 16.242188 17.4375 15.828125 C 28.550781 14.179688 39.632812 13.109375 50.6875 12.609375 C 51.351562 12.546875 52.003906 12.5 52.640625 12.46875 C 56.046875 12.289062 59.453125 12.144531 62.859375 12.03125 C 64.085938 11.988281 65.3125 11.757812 66.53125 11.34375 C 70.75 9.769531 74.898438 8.015625 78.984375 6.078125 C 83.078125 4.148438 87.070312 1.960938 90.96875 -0.484375 C 94.226562 -2.460938 97.226562 -4.800781 99.96875 -7.5 C 101.519531 -8.96875 102.78125 -10.628906 103.75 -12.484375 C 105.050781 -15.191406 104.8125 -17.53125 103.03125 -19.5 C 101.769531 -20.800781 100.28125 -21.816406 98.5625 -22.546875 C 96.28125 -23.597656 93.910156 -24.4375 91.453125 -25.0625 C 88.992188 -25.695312 86.5 -26.242188 83.96875 -26.703125 C 76.8125 -27.867188 69.507812 -28.585938 62.0625 -28.859375 C 61.789062 -28.859375 61.53125 -28.859375 61.28125 -28.859375 C 60.988281 -28.859375 60.691406 -28.859375 60.390625 -28.859375 C 59.753906 -28.765625 59.273438 -28.382812 58.953125 -27.71875 C 58.785156 -27.425781 58.632812 -27.144531 58.5 -26.875 C 58.175781 -26.25 57.835938 -25.617188 57.484375 -24.984375 C 54.847656 -19.640625 52.21875 -14.316406 49.59375 -9.015625 C 47.414062 -4.492188 45.203125 -0.00390625 42.953125 4.453125 C 42.921875 4.617188 42.863281 4.757812 42.78125 4.875 C 42.519531 5.4375 42.222656 5.96875 41.890625 6.46875 C 41.515625 6.882812 41.078125 7.054688 40.578125 6.984375 C 40.273438 7.015625 39.976562 6.992188 39.6875 6.921875 C 39.164062 6.648438 38.992188 6.25 39.171875 5.71875 C 39.628906 4.53125 40.132812 3.367188 40.6875 2.234375 C 44.019531 -4.847656 47.351562 -11.898438 50.6875 -18.921875 C 51.78125 -21.160156 52.851562 -23.390625 53.90625 -25.609375 C 53.976562 -25.828125 54.0625 -26.019531 54.15625 -26.1875 C 54.40625 -26.707031 54.632812 -27.21875 54.84375 -27.71875 C 55.132812 -28.476562 54.90625 -28.878906 54.15625 -28.921875 C 53.78125 -28.953125 53.398438 -28.96875 53.015625 -28.96875 C 52.515625 -29.007812 52.023438 -29.050781 51.546875 -29.09375 C 51.472656 -29.09375 51.367188 -29.09375 51.234375 -29.09375 C 50.660156 -29.144531 50.117188 -29.242188 49.609375 -29.390625 C 49.097656 -29.535156 48.796875 -29.925781 48.703125 -30.5625 C 48.703125 -31.269531 48.945312 -31.796875 49.4375 -32.140625 C 49.925781 -32.484375 50.46875 -32.757812 51.0625 -32.96875 C 51.269531 -33.039062 51.460938 -33.097656 51.640625 -33.140625 C 53.222656 -33.804688 54.835938 -34.398438 56.484375 -34.921875 C 56.660156 -34.992188 56.851562 -35.050781 57.0625 -35.09375 C 58.320312 -35.476562 59.269531 -36.28125 59.90625 -37.5 C 62.71875 -42.84375 65.539062 -48.175781 68.375 -53.5 C 69.332031 -55.332031 70.316406 -57.195312 71.328125 -59.09375 C 71.460938 -59.363281 71.585938 -59.625 71.703125 -59.875 C 71.953125 -60.40625 72.25 -60.929688 72.59375 -61.453125 C 73.019531 -62.085938 73.566406 -62.335938 74.234375 -62.203125 C 74.535156 -62.242188 74.832031 -62.222656 75.125 -62.140625 C 75.757812 -61.859375 75.953125 -61.367188 75.703125 -60.671875 C 75.703125 -60.640625 75.679688 -60.625 75.640625 -60.625 C 75.160156 -59.1875 74.585938 -57.796875 73.921875 -56.453125 C 72.273438 -53.222656 70.585938 -49.976562 68.859375 -46.71875 C 68.328125 -45.625 67.765625 -44.535156 67.171875 -43.453125 C 66.859375 -42.890625 66.5625 -42.34375 66.28125 -41.8125 C 65.78125 -40.875 65.289062 -39.925781 64.8125 -38.96875 C 64.8125 -38.96875 64.789062 -38.941406 64.75 -38.890625 C 64.675781 -38.734375 64.613281 -38.566406 64.5625 -38.390625 C 64.519531 -38.222656 64.601562 -38.097656 64.8125 -38.015625 C 64.945312 -37.960938 65.082031 -37.914062 65.21875 -37.875 L 65.328125 -37.9375 C 65.578125 -37.988281 65.859375 -38.054688 66.171875 -38.140625 C 66.242188 -38.171875 66.316406 -38.207031 66.390625 -38.25 C 75.617188 -41.15625 84.835938 -44.171875 94.046875 -47.296875 C 103.253906 -50.421875 112.40625 -53.769531 121.5 -57.34375 C 121.707031 -57.425781 121.898438 -57.484375 122.078125 -57.515625 C 124.847656 -58.671875 127.613281 -59.828125 130.375 -60.984375 C 133.132812 -62.140625 135.863281 -63.390625 138.5625 -64.734375 C 140.570312 -65.703125 142.46875 -66.859375 144.25 -68.203125 C 148.039062 -71.285156 148.203125 -74.039062 144.734375 -76.46875 C 143.109375 -77.582031 141.332031 -78.429688 139.40625 -79.015625 C 137.476562 -79.597656 135.507812 -80.015625 133.5 -80.265625 C 128.695312 -80.992188 123.835938 -81.359375 118.921875 -81.359375 L 118.828125 -81.359375 C 114.078125 -81.316406 109.28125 -81.085938 104.4375 -80.671875 C 93.695312 -79.734375 82.976562 -77.910156 72.28125 -75.203125 C 62.414062 -72.773438 52.75 -69.457031 43.28125 -65.25 C 40.789062 -64.15625 38.367188 -62.910156 36.015625 -61.515625 C 35.335938 -61.085938 34.664062 -60.703125 34 -60.359375 C 33.613281 -60.210938 33.25 -60.175781 32.90625 -60.25 C 32.445312 -60.175781 32.078125 -60.300781 31.796875 -60.625 C 31.578125 -60.925781 31.5625 -61.203125 31.75 -61.453125 C 31.945312 -61.703125 32.191406 -61.914062 32.484375 -62.09375 C 34.503906 -63.519531 36.609375 -64.710938 38.796875 -65.671875 C 38.835938 -65.671875 38.875 -65.691406 38.90625 -65.734375 C 47.851562 -69.941406 57 -73.3125 66.34375 -75.84375 C 79.8125 -79.550781 93.351562 -81.867188 106.96875 -82.796875 C 111.175781 -83.097656 115.367188 -83.25 119.546875 -83.25 C 124.085938 -83.289062 128.585938 -83.0625 133.046875 -82.5625 C 137.253906 -82.144531 141.253906 -81.164062 145.046875 -79.625 C 146.828125 -78.957031 148.367188 -77.953125 149.671875 -76.609375 C 150.765625 -75.429688 151.25 -74.128906 151.125 -72.703125 C 151 -71.273438 150.304688 -69.863281 149.046875 -68.46875 C 147.429688 -66.851562 145.640625 -65.519531 143.671875 -64.46875 C 141.273438 -63.125 138.832031 -61.90625 136.34375 -60.8125 C 133.851562 -59.726562 131.347656 -58.675781 128.828125 -57.65625 C 128.742188 -57.625 128.640625 -57.578125 128.515625 -57.515625 C 119.703125 -53.898438 110.820312 -50.546875 101.875 -47.453125 C 92.925781 -44.359375 83.941406 -41.378906 74.921875 -38.515625 C 73.410156 -38.015625 71.898438 -37.503906 70.390625 -36.984375 C 68.285156 -36.273438 66.175781 -35.585938 64.0625 -34.921875 C 63.144531 -34.710938 62.410156 -34.203125 61.859375 -33.390625 C 61.398438 -32.628906 61.195312 -32.035156 61.25 -31.609375 C 61.3125 -31.191406 61.789062 -30.960938 62.6875 -30.921875 C 65.082031 -30.847656 67.476562 -30.726562 69.875 -30.5625 C 70.039062 -30.5625 70.191406 -30.5625 70.328125 -30.5625 C 74.867188 -30.269531 79.347656 -29.78125 83.765625 -29.09375 C 88.191406 -28.414062 92.507812 -27.425781 96.71875 -26.125 C 98.539062 -25.539062 100.289062 -24.875 101.96875 -24.125 C 103.101562 -23.601562 104.175781 -22.972656 105.1875 -22.234375 C 109.53125 -18.859375 109.847656 -14.613281 106.140625 -9.5 C 104.910156 -7.820312 103.503906 -6.289062 101.921875 -4.90625 C 97.992188 -1.539062 93.78125 1.363281 89.28125 3.8125 C 85.394531 5.957031 81.453125 7.941406 77.453125 9.765625 C 76.992188 9.921875 76.515625 10.128906 76.015625 10.390625 C 75.765625 10.503906 75.488281 10.628906 75.1875 10.765625 C 75.425781 11.148438 75.648438 11.378906 75.859375 11.453125 C 76.078125 11.535156 76.320312 11.554688 76.59375 11.515625 C 76.59375 11.515625 76.609375 11.515625 76.640625 11.515625 C 77.347656 11.554688 78.039062 11.578125 78.71875 11.578125 L 78.796875 11.578125 C 79.253906 11.578125 79.710938 11.554688 80.171875 11.515625 C 82.285156 11.515625 84.394531 11.515625 86.5 11.515625 C 99 11.554688 111.441406 11.832031 123.828125 12.34375 C 137.304688 12.800781 150.726562 13.625 164.09375 14.8125 C 168.34375 15.175781 172.59375 15.550781 176.84375 15.9375 C 181.96875 16.351562 187.085938 16.796875 192.203125 17.265625 C 195.191406 17.566406 198.160156 17.925781 201.109375 18.34375 C 201.816406 18.425781 202.550781 18.515625 203.3125 18.609375 C 203.851562 18.679688 204.398438 18.84375 204.953125 19.09375 Z M 56.421875 -31.390625 C 56.503906 -31.421875 56.585938 -31.5 56.671875 -31.625 C 56.753906 -31.75 56.816406 -31.851562 56.859375 -31.9375 C 56.859375 -32.03125 56.835938 -32.09375 56.796875 -32.125 C 56.765625 -32.164062 56.695312 -32.234375 56.59375 -32.328125 C 56.59375 -32.328125 56.578125 -32.347656 56.546875 -32.390625 C 56.085938 -32.296875 55.664062 -32.066406 55.28125 -31.703125 C 55.207031 -31.609375 55.175781 -31.507812 55.1875 -31.40625 C 55.207031 -31.300781 55.285156 -31.25 55.421875 -31.25 C 55.742188 -31.25 56.078125 -31.296875 56.421875 -31.390625 Z M 53.265625 15.765625 C 53.347656 15.703125 53.4375 15.671875 53.53125 15.671875 C 53.6875 15.640625 53.847656 15.570312 54.015625 15.46875 C 54.191406 15.363281 54.316406 15.203125 54.390625 14.984375 C 54.316406 14.816406 54.238281 14.710938 54.15625 14.671875 C 54.101562 14.671875 54.054688 14.671875 54.015625 14.671875 C 43.828125 15.128906 33.613281 15.992188 23.375 17.265625 C 18.320312 17.859375 13.285156 18.804688 8.265625 20.109375 C 8.148438 20.160156 8.023438 20.207031 7.890625 20.25 C 7.015625 20.414062 6.222656 20.769531 5.515625 21.3125 C 5.335938 21.445312 5.222656 21.59375 5.171875 21.75 C 5.128906 21.914062 5.210938 22.066406 5.421875 22.203125 C 5.847656 22.367188 6.300781 22.507812 6.78125 22.625 C 8.40625 22.9375 10.0625 23.09375 11.75 23.09375 C 13.1875 23.09375 14.617188 23.023438 16.046875 22.890625 C 28.515625 21.835938 40.921875 19.460938 53.265625 15.765625 Z M 53.265625 15.765625 "/>
      </g>
    </g>
  
    <g transform="translate(114.756808, 184.831802)">
      <g>
        <path d="M 13.90625 -13.703125 C 14.53125 -14.328125 15.050781 -14.675781 15.46875 -14.75 C 15.894531 -14.832031 16.171875 -14.769531 16.296875 -14.5625 C 16.421875 -14.351562 16.335938 -14.066406 16.046875 -13.703125 C 14.367188 -11.671875 12.484375 -9.914062 10.390625 -8.4375 C 8.304688 -6.96875 6.15625 -6.117188 3.9375 -5.890625 C 1.726562 -5.660156 0.394531 -6.863281 -0.0625 -9.5 C -0.40625 -12.125 1.179688 -17.46875 4.703125 -25.53125 C 8.234375 -33.59375 11.019531 -40.195312 13.0625 -45.34375 C 13.238281 -45.800781 13.5 -46.203125 13.84375 -46.546875 C 14.300781 -47.003906 14.847656 -47.109375 15.484375 -46.859375 C 15.691406 -46.765625 15.898438 -46.613281 16.109375 -46.40625 C 16.316406 -46.195312 16.382812 -45.820312 16.3125 -45.28125 C 7.257812 -23.800781 2.875 -12.125 3.15625 -10.25 C 3.445312 -8.375 4.660156 -7.910156 6.796875 -8.859375 C 8.929688 -9.804688 10.578125 -10.769531 11.734375 -11.75 C 12.890625 -12.738281 13.613281 -13.390625 13.90625 -13.703125 Z M 13.90625 -13.703125 "/>
      </g>
    </g>
  
    <g transform="translate(127.906226, 184.831802)">
      <g>
        <path d="M 20.828125 -14.625 C 21.285156 -14.375 21.320312 -13.75 20.9375 -12.75 C 20.382812 -12.019531 19.789062 -11.335938 19.15625 -10.703125 C 18.519531 -10.078125 17.832031 -9.515625 17.09375 -9.015625 C 17.03125 -9.015625 17 -8.992188 17 -8.953125 C 16.5 -8.609375 15.972656 -8.3125 15.421875 -8.0625 C 10.847656 -6.414062 8.515625 -7.382812 8.421875 -10.96875 C 6.554688 -9.363281 5.3125 -8.378906 4.6875 -8.015625 C 3.164062 -7.109375 1.523438 -6.707031 -0.234375 -6.8125 C -1.535156 -6.882812 -2.421875 -7.28125 -2.890625 -8 C -3.359375 -8.71875 -3.3125 -9.6875 -2.75 -10.90625 C -1.914062 -12.84375 -0.722656 -14.566406 0.828125 -16.078125 C 2.648438 -17.765625 4.671875 -19.113281 6.890625 -20.125 C 8.078125 -20.71875 9.320312 -20.945312 10.625 -20.8125 C 11.925781 -20.738281 12.710938 -20.003906 12.984375 -18.609375 C 13.097656 -18.191406 12.992188 -17.816406 12.671875 -17.484375 C 12.242188 -17.109375 11.753906 -17.023438 11.203125 -17.234375 C 11.160156 -17.234375 11.101562 -17.238281 11.03125 -17.25 C 10.96875 -17.269531 10.921875 -17.300781 10.890625 -17.34375 C 10.328125 -18.113281 9.765625 -18.4375 9.203125 -18.3125 C 8.640625 -18.1875 8.039062 -17.929688 7.40625 -17.546875 C 4.457031 -15.828125 2.265625 -13.425781 0.828125 -10.34375 C 0.753906 -10.207031 0.707031 -10.054688 0.6875 -9.890625 C 0.664062 -9.734375 0.710938 -9.601562 0.828125 -9.5 C 1.171875 -9.382812 1.550781 -9.410156 1.96875 -9.578125 C 2.394531 -9.742188 2.816406 -9.984375 3.234375 -10.296875 C 3.660156 -10.609375 4.019531 -10.867188 4.3125 -11.078125 C 4.34375 -11.140625 4.359375 -11.171875 4.359375 -11.171875 C 5.765625 -12.335938 7.132812 -13.535156 8.46875 -14.765625 C 9.0625 -15.390625 9.800781 -15.742188 10.6875 -15.828125 C 11.945312 -15.828125 12.472656 -15.257812 12.265625 -14.125 C 12.148438 -13.707031 12.023438 -13.285156 11.890625 -12.859375 C 11.390625 -11.046875 11.367188 -9.976562 11.828125 -9.65625 C 12.285156 -9.34375 12.988281 -9.34375 13.9375 -9.65625 C 14.882812 -9.976562 15.832031 -10.582031 16.78125 -11.46875 C 17.726562 -12.363281 18.523438 -13.175781 19.171875 -13.90625 C 19.828125 -14.644531 20.378906 -14.882812 20.828125 -14.625 Z M 20.828125 -14.625 "/>
      </g>
    </g>
  
    <g transform="translate(145.763883, 184.831802)">
      <g>
        <path d="M 22.75 -14.328125 C 23.050781 -13.941406 22.664062 -13.242188 21.59375 -12.234375 C 20.519531 -11.222656 19.378906 -10.367188 18.171875 -9.671875 C 16.972656 -8.984375 15.578125 -8.296875 13.984375 -7.609375 C 12.929688 -7.148438 11.8125 -6.992188 10.625 -7.140625 C 9.4375 -7.296875 8.84375 -8.015625 8.84375 -9.296875 C 8.84375 -10.585938 9.140625 -11.863281 9.734375 -13.125 C 10.328125 -14.425781 10.457031 -15.09375 10.125 -15.125 C 9.789062 -15.164062 9.097656 -14.851562 8.046875 -14.1875 C 5.304688 -12.382812 2.757812 -10.328125 0.40625 -8.015625 C -0.226562 -7.242188 -1.035156 -6.820312 -2.015625 -6.75 C -2.503906 -6.75 -2.890625 -6.90625 -3.171875 -7.21875 C -3.453125 -7.539062 -3.488281 -7.878906 -3.28125 -8.234375 C -1.59375 -11.359375 0.113281 -14.441406 1.84375 -17.484375 C 2.21875 -18.117188 2.789062 -18.515625 3.5625 -18.671875 C 3.882812 -18.722656 4.179688 -18.617188 4.453125 -18.359375 C 4.734375 -18.109375 4.875 -17.816406 4.875 -17.484375 C 4.84375 -17.179688 4.722656 -16.816406 4.515625 -16.390625 C 4.410156 -16.148438 4.316406 -15.910156 4.234375 -15.671875 C 4.148438 -15.441406 4.117188 -15.25 4.140625 -15.09375 C 4.171875 -14.945312 4.296875 -14.90625 4.515625 -14.96875 C 4.796875 -15.113281 5.082031 -15.273438 5.375 -15.453125 C 6.101562 -15.867188 6.800781 -16.269531 7.46875 -16.65625 C 8.0625 -17 8.679688 -17.304688 9.328125 -17.578125 C 9.984375 -17.847656 10.664062 -18.03125 11.375 -18.125 C 12.519531 -18.195312 13.332031 -17.9375 13.8125 -17.34375 C 14.289062 -16.75 14.347656 -15.925781 13.984375 -14.875 C 13.597656 -13.914062 13.195312 -12.96875 12.78125 -12.03125 C 12.257812 -11.15625 12.171875 -10.484375 12.515625 -10.015625 C 12.859375 -9.554688 14.457031 -10.085938 17.3125 -11.609375 L 19.46875 -12.859375 C 21.5 -14.160156 22.59375 -14.648438 22.75 -14.328125 Z M 22.75 -14.328125 "/>
      </g>
    </g>
  
    <g transform="translate(165.631158, 184.831802)">
      <g>
        <path d="M 22.25 -14.640625 C 22.40625 -14.429688 22.441406 -14.222656 22.359375 -14.015625 C 22.285156 -13.804688 22.144531 -13.613281 21.9375 -13.4375 C 20.613281 -12.25 19.140625 -11.300781 17.515625 -10.59375 C 14.722656 -9.289062 11.796875 -8.488281 8.734375 -8.1875 C 6.316406 -7.9375 4.019531 -8.300781 1.84375 -9.28125 C 1.03125 -9.644531 0.4375 -9.453125 0.0625 -8.703125 C -0.476562 -7.648438 -1.046875 -6.597656 -1.640625 -5.546875 C -1.921875 -4.953125 -2.234375 -4.335938 -2.578125 -3.703125 C -2.617188 -3.628906 -2.660156 -3.546875 -2.703125 -3.453125 C -2.835938 -3.234375 -2.96875 -3.03125 -3.09375 -2.84375 C -3.21875 -2.65625 -3.429688 -2.519531 -3.734375 -2.4375 C -3.890625 -2.40625 -4.050781 -2.390625 -4.21875 -2.390625 C -4.394531 -2.390625 -4.550781 -2.425781 -4.6875 -2.5 C -4.800781 -2.59375 -4.898438 -2.71875 -4.984375 -2.875 C -5.066406 -3.039062 -5.109375 -3.210938 -5.109375 -3.390625 C -4.972656 -3.941406 -4.78125 -4.488281 -4.53125 -5.03125 C -4 -6.25 -3.472656 -7.453125 -2.953125 -8.640625 C -1.648438 -11.671875 -0.28125 -14.660156 1.15625 -17.609375 C 5.113281 -25.742188 8.882812 -33.957031 12.46875 -42.25 C 12.75 -43.050781 13.140625 -43.765625 13.640625 -44.390625 C 14.023438 -44.847656 14.550781 -44.972656 15.21875 -44.765625 C 15.90625 -44.484375 16.117188 -44 15.859375 -43.3125 C 15.390625 -41.894531 14.890625 -40.46875 14.359375 -39.03125 C 11.691406 -32.457031 8.78125 -26.015625 5.625 -19.703125 C 4.957031 -18.335938 4.71875 -17.476562 4.90625 -17.125 C 5.101562 -16.769531 5.554688 -16.738281 6.265625 -17.03125 C 6.972656 -17.332031 7.796875 -17.734375 8.734375 -18.234375 C 9.398438 -18.617188 10.066406 -18.953125 10.734375 -19.234375 C 10.867188 -19.335938 10.992188 -19.40625 11.109375 -19.4375 C 11.910156 -19.894531 12.785156 -20.144531 13.734375 -20.1875 C 14.085938 -20.1875 14.351562 -20.023438 14.53125 -19.703125 C 14.625 -19.492188 14.628906 -19.3125 14.546875 -19.15625 C 14.460938 -19 14.351562 -18.882812 14.21875 -18.8125 C 12.78125 -17.96875 11.320312 -17.160156 9.84375 -16.390625 C 9.132812 -16.066406 8.398438 -15.710938 7.640625 -15.328125 C 6.890625 -14.984375 6.148438 -14.625 5.421875 -14.25 C 4.929688 -13.957031 4.472656 -13.617188 4.046875 -13.234375 C 3.066406 -12.222656 3.171875 -11.382812 4.359375 -10.71875 C 5.335938 -10.289062 6.316406 -10.066406 7.296875 -10.046875 C 8.285156 -10.023438 9.269531 -10.140625 10.25 -10.390625 C 13.28125 -11.066406 16.125 -12.171875 18.78125 -13.703125 C 18.988281 -13.816406 19.195312 -13.921875 19.40625 -14.015625 C 19.90625 -14.335938 20.429688 -14.625 20.984375 -14.875 C 21.203125 -14.96875 21.4375 -15.003906 21.6875 -14.984375 C 21.9375 -14.972656 22.125 -14.859375 22.25 -14.640625 Z M 22.25 -14.640625 "/>
      </g>
    </g>
  
    <g transform="translate(184.665869, 184.831802)">
      <g>
        <path d="M 20.828125 -14.625 C 21.285156 -14.375 21.320312 -13.75 20.9375 -12.75 C 20.382812 -12.019531 19.789062 -11.335938 19.15625 -10.703125 C 18.519531 -10.078125 17.832031 -9.515625 17.09375 -9.015625 C 17.03125 -9.015625 17 -8.992188 17 -8.953125 C 16.5 -8.609375 15.972656 -8.3125 15.421875 -8.0625 C 10.847656 -6.414062 8.515625 -7.382812 8.421875 -10.96875 C 6.554688 -9.363281 5.3125 -8.378906 4.6875 -8.015625 C 3.164062 -7.109375 1.523438 -6.707031 -0.234375 -6.8125 C -1.535156 -6.882812 -2.421875 -7.28125 -2.890625 -8 C -3.359375 -8.71875 -3.3125 -9.6875 -2.75 -10.90625 C -1.914062 -12.84375 -0.722656 -14.566406 0.828125 -16.078125 C 2.648438 -17.765625 4.671875 -19.113281 6.890625 -20.125 C 8.078125 -20.71875 9.320312 -20.945312 10.625 -20.8125 C 11.925781 -20.738281 12.710938 -20.003906 12.984375 -18.609375 C 13.097656 -18.191406 12.992188 -17.816406 12.671875 -17.484375 C 12.242188 -17.109375 11.753906 -17.023438 11.203125 -17.234375 C 11.160156 -17.234375 11.101562 -17.238281 11.03125 -17.25 C 10.96875 -17.269531 10.921875 -17.300781 10.890625 -17.34375 C 10.328125 -18.113281 9.765625 -18.4375 9.203125 -18.3125 C 8.640625 -18.1875 8.039062 -17.929688 7.40625 -17.546875 C 4.457031 -15.828125 2.265625 -13.425781 0.828125 -10.34375 C 0.753906 -10.207031 0.707031 -10.054688 0.6875 -9.890625 C 0.664062 -9.734375 0.710938 -9.601562 0.828125 -9.5 C 1.171875 -9.382812 1.550781 -9.410156 1.96875 -9.578125 C 2.394531 -9.742188 2.816406 -9.984375 3.234375 -10.296875 C 3.660156 -10.609375 4.019531 -10.867188 4.3125 -11.078125 C 4.34375 -11.140625 4.359375 -11.171875 4.359375 -11.171875 C 5.765625 -12.335938 7.132812 -13.535156 8.46875 -14.765625 C 9.0625 -15.390625 9.800781 -15.742188 10.6875 -15.828125 C 11.945312 -15.828125 12.472656 -15.257812 12.265625 -14.125 C 12.148438 -13.707031 12.023438 -13.285156 11.890625 -12.859375 C 11.390625 -11.046875 11.367188 -9.976562 11.828125 -9.65625 C 12.285156 -9.34375 12.988281 -9.34375 13.9375 -9.65625 C 14.882812 -9.976562 15.832031 -10.582031 16.78125 -11.46875 C 17.726562 -12.363281 18.523438 -13.175781 19.171875 -13.90625 C 19.828125 -14.644531 20.378906 -14.882812 20.828125 -14.625 Z M 20.828125 -14.625 "/>
      </g>
    </g>
  
    <g transform="translate(202.523526, 184.831802)">
      <g/>
    </g>
  
    <g transform="translate(223.051096, 184.831802)">
      <g>
        <path d="M 148.359375 -82.875 C 148.847656 -82.457031 149.296875 -81.984375 149.703125 -81.453125 C 150.109375 -80.929688 150.367188 -80.304688 150.484375 -79.578125 C 150.609375 -78.773438 150.316406 -78.160156 149.609375 -77.734375 C 149.191406 -77.523438 148.78125 -77.492188 148.375 -77.640625 C 147.976562 -77.796875 147.691406 -78.101562 147.515625 -78.5625 C 147.054688 -79.832031 146.363281 -80.832031 145.4375 -81.5625 C 144.507812 -82.300781 143.5 -82.953125 142.40625 -83.515625 C 140 -84.773438 137.507812 -85.800781 134.9375 -86.59375 C 132.375 -87.382812 129.789062 -88.078125 127.1875 -88.671875 C 122.84375 -89.597656 117.054688 -90.195312 109.828125 -90.46875 C 102.597656 -90.75 94.550781 -90.644531 85.6875 -90.15625 C 76.820312 -89.664062 67.75 -88.71875 58.46875 -87.3125 C 49.1875 -85.90625 40.296875 -83.972656 31.796875 -81.515625 C 23.304688 -79.054688 15.847656 -75.992188 9.421875 -72.328125 C 3.003906 -68.660156 -1.78125 -64.335938 -4.9375 -59.359375 C -7.582031 -55.035156 -8.109375 -50.46875 -6.515625 -45.65625 C -5.367188 -42.363281 -3.722656 -39.367188 -1.578125 -36.671875 C 1.617188 -32.628906 5.160156 -28.925781 9.046875 -25.5625 C 12.316406 -22.570312 15.617188 -19.582031 18.953125 -16.59375 C 22.191406 -13.726562 25.4375 -10.820312 28.6875 -7.875 C 32.300781 -4.539062 35.863281 -1.171875 39.375 2.234375 C 39.695312 2.566406 40.03125 2.882812 40.375 3.1875 C 42.269531 4.945312 43.9375 6.898438 45.375 9.046875 C 46.84375 11.492188 47.125 13.390625 46.21875 14.734375 C 45.3125 16.085938 43.582031 17.003906 41.03125 17.484375 C 38.488281 17.960938 35.53125 18.109375 32.15625 17.921875 C 28.789062 17.742188 25.398438 17.320312 21.984375 16.65625 C 18.566406 16 15.53125 15.210938 12.875 14.296875 C 10.226562 13.378906 8.359375 12.429688 7.265625 11.453125 C 5.078125 9.429688 4.929688 7.289062 6.828125 5.03125 C 8.878906 2.707031 11.378906 1.019531 14.328125 -0.03125 C 18.597656 -1.675781 22.914062 -1.8125 27.28125 -0.4375 C 28.125 -0.125 28.925781 0.28125 29.6875 0.78125 C 29.769531 0.8125 29.835938 0.859375 29.890625 0.921875 C 30.097656 1.035156 30.238281 1.207031 30.3125 1.4375 C 30.394531 1.664062 30.359375 1.914062 30.203125 2.1875 C 29.859375 2.601562 29.441406 2.726562 28.953125 2.5625 C 28.472656 2.382812 28.019531 2.171875 27.59375 1.921875 C 24.570312 0.410156 21.460938 0.09375 18.265625 0.96875 C 15.066406 1.851562 12.367188 3.597656 10.171875 6.203125 C 9.210938 7.460938 9.160156 8.566406 10.015625 9.515625 C 10.878906 10.460938 12.195312 11.265625 13.96875 11.921875 C 15.738281 12.585938 17.519531 13.109375 19.3125 13.484375 C 21.101562 13.859375 22.4375 14.113281 23.3125 14.25 C 23.488281 14.25 23.613281 14.265625 23.6875 14.296875 C 23.863281 14.296875 24.078125 14.316406 24.328125 14.359375 C 25.453125 14.609375 26.992188 14.867188 28.953125 15.140625 C 30.921875 15.421875 32.945312 15.613281 35.03125 15.71875 C 37.125 15.820312 38.914062 15.679688 40.40625 15.296875 C 41.894531 14.921875 42.734375 14.1875 42.921875 13.09375 C 43.117188 12 42.289062 10.378906 40.4375 8.234375 C 38.457031 5.960938 36.367188 3.753906 34.171875 1.609375 C 28.691406 -3.691406 23.070312 -8.832031 17.3125 -13.8125 C 15.25 -15.664062 13.179688 -17.523438 11.109375 -19.390625 C 7.660156 -22.484375 4.273438 -25.660156 0.953125 -28.921875 C -2.128906 -31.898438 -4.847656 -35.179688 -7.203125 -38.765625 C -8.890625 -41.367188 -10.066406 -44.175781 -10.734375 -47.1875 C -11.753906 -52.101562 -10.847656 -56.648438 -8.015625 -60.828125 C -4.910156 -65.492188 -0.410156 -69.625 5.484375 -73.21875 C 11.378906 -76.820312 18.210938 -79.894531 25.984375 -82.4375 C 33.753906 -84.988281 42.035156 -87.050781 50.828125 -88.625 C 59.617188 -90.207031 68.5 -91.328125 77.46875 -91.984375 C 86.4375 -92.648438 95.035156 -92.878906 103.265625 -92.671875 C 111.492188 -92.460938 118.941406 -91.835938 125.609375 -90.796875 C 132.285156 -89.765625 137.757812 -88.34375 142.03125 -86.53125 C 144.289062 -85.644531 146.398438 -84.425781 148.359375 -82.875 Z M 148.359375 -82.875 "/>
      </g>
    </g>
  
    <g transform="translate(264.191603, 184.831802)">
      <g>
        <path d="M 11.40625 -12.09375 C 10.382812 -10.882812 9.175781 -9.769531 7.78125 -8.75 C 6.382812 -7.738281 4.804688 -7.054688 3.046875 -6.703125 C 1.285156 -6.347656 -0.0820312 -6.476562 -1.0625 -7.09375 C -2.039062 -7.707031 -2.234375 -9.066406 -1.640625 -11.171875 C -0.867188 -13.347656 0.179688 -15.425781 1.515625 -17.40625 C 1.828125 -17.820312 2.269531 -18.117188 2.84375 -18.296875 C 3.257812 -18.390625 3.625 -18.316406 3.9375 -18.078125 C 4.257812 -17.835938 4.382812 -17.535156 4.3125 -17.171875 C 4.019531 -16.484375 3.703125 -15.796875 3.359375 -15.109375 C 3.015625 -14.421875 2.785156 -13.96875 2.671875 -13.75 C 2.003906 -12.53125 1.535156 -11.25 1.265625 -9.90625 C 1.265625 -9.144531 2.285156 -9.097656 4.328125 -9.765625 C 6.378906 -10.429688 8.367188 -11.660156 10.296875 -13.453125 C 12.234375 -15.242188 13.160156 -15.769531 13.078125 -15.03125 C 12.992188 -14.289062 12.4375 -13.3125 11.40625 -12.09375 Z M 6.40625 -21.703125 C 6.3125 -21.628906 6.113281 -21.539062 5.8125 -21.4375 C 5.519531 -21.332031 5.203125 -21.253906 4.859375 -21.203125 C 4.523438 -21.160156 4.265625 -21.210938 4.078125 -21.359375 C 3.890625 -21.515625 3.878906 -21.820312 4.046875 -22.28125 C 4.359375 -23.082031 4.679688 -23.785156 5.015625 -24.390625 C 5.347656 -24.992188 5.78125 -25.660156 6.3125 -26.390625 C 6.65625 -26.710938 7.03125 -26.890625 7.4375 -26.921875 C 7.84375 -26.953125 8.175781 -26.847656 8.4375 -26.609375 C 8.707031 -26.367188 8.785156 -26.035156 8.671875 -25.609375 C 8.253906 -24.097656 7.5 -22.796875 6.40625 -21.703125 Z M 6.40625 -21.703125 "/>
      </g>
    </g>
  
    <g transform="translate(274.211742, 184.831802)">
      <g>
        <path d="M 22.859375 -15.078125 C 22.441406 -14.898438 22 -14.753906 21.53125 -14.640625 C 21.414062 -14.585938 21.3125 -14.539062 21.21875 -14.5 C 20.757812 -14.332031 20.300781 -14.171875 19.84375 -14.015625 C 18.539062 -13.585938 17.210938 -13.140625 15.859375 -12.671875 C 14.835938 -12.378906 14.039062 -11.742188 13.46875 -10.765625 C 12.53125 -9.253906 11.359375 -8.078125 9.953125 -7.234375 C 8.546875 -6.390625 7.113281 -5.789062 5.65625 -5.4375 C 4.195312 -5.082031 2.90625 -4.863281 1.78125 -4.78125 C 0.664062 -4.695312 -0.0507812 -4.671875 -0.375 -4.703125 C -0.414062 -4.703125 -0.460938 -4.703125 -0.515625 -4.703125 C -0.972656 -4.421875 -1.429688 -3.859375 -1.890625 -3.015625 C -2.347656 -2.171875 -2.75 -1.414062 -3.09375 -0.75 C -3.175781 -0.570312 -3.238281 -0.414062 -3.28125 -0.28125 C -5.164062 3.507812 -7.039062 7.296875 -8.90625 11.078125 C -9.957031 13.191406 -11.007812 15.300781 -12.0625 17.40625 C -12.40625 18.144531 -12.804688 18.863281 -13.265625 19.5625 C -13.691406 20.09375 -14.21875 20.195312 -14.84375 19.875 C -15.269531 19.5625 -15.375 19.140625 -15.15625 18.609375 C -14.945312 18.054688 -14.71875 17.5 -14.46875 16.9375 C -11.175781 9.144531 -7.679688 1.441406 -3.984375 -6.171875 C -2.835938 -8.523438 -1.757812 -10.925781 -0.75 -13.375 C -0.289062 -14.507812 0.1875 -15.671875 0.6875 -16.859375 C 0.726562 -16.972656 0.796875 -17.097656 0.890625 -17.234375 C 1.140625 -17.859375 1.4375 -18.46875 1.78125 -19.0625 C 1.9375 -19.28125 2.222656 -19.414062 2.640625 -19.46875 C 3.066406 -19.53125 3.429688 -19.472656 3.734375 -19.296875 C 4.117188 -19.046875 4.3125 -18.671875 4.3125 -18.171875 C 4.3125 -17.921875 4.257812 -17.664062 4.15625 -17.40625 C 4.082031 -17.195312 4.035156 -16.984375 4.015625 -16.765625 C 3.992188 -16.554688 4.0625 -16.347656 4.21875 -16.140625 C 4.53125 -16.097656 4.800781 -16.140625 5.03125 -16.265625 C 5.257812 -16.390625 5.476562 -16.539062 5.6875 -16.71875 C 5.894531 -16.882812 6.144531 -17.007812 6.4375 -17.09375 C 6.601562 -17.1875 6.773438 -17.269531 6.953125 -17.34375 C 7.867188 -17.769531 8.773438 -18.132812 9.671875 -18.4375 C 10.835938 -18.800781 12 -18.710938 13.15625 -18.171875 C 13.65625 -17.867188 14.023438 -17.492188 14.265625 -17.046875 C 14.515625 -16.609375 14.707031 -16.144531 14.84375 -15.65625 C 14.976562 -15.269531 15.328125 -15.066406 15.890625 -15.046875 C 16.453125 -15.023438 17.082031 -15.09375 17.78125 -15.25 C 18.488281 -15.414062 19.128906 -15.585938 19.703125 -15.765625 C 20.179688 -15.898438 20.523438 -15.988281 20.734375 -16.03125 C 21.304688 -16.15625 21.890625 -16.191406 22.484375 -16.140625 C 22.660156 -16.140625 22.816406 -16.109375 22.953125 -16.046875 C 23.097656 -15.992188 23.171875 -15.84375 23.171875 -15.59375 C 23.171875 -15.5 23.140625 -15.398438 23.078125 -15.296875 C 23.023438 -15.191406 22.953125 -15.117188 22.859375 -15.078125 Z M 10.796875 -13.1875 C 11.179688 -13.425781 11.414062 -13.832031 11.5 -14.40625 C 11.582031 -14.988281 11.519531 -15.546875 11.3125 -16.078125 C 11.21875 -16.253906 11.085938 -16.375 10.921875 -16.4375 C 10.765625 -16.507812 10.597656 -16.546875 10.421875 -16.546875 C 10.078125 -16.484375 9.742188 -16.375 9.421875 -16.21875 C 5.878906 -14.4375 3.015625 -11.910156 0.828125 -8.640625 C 0.410156 -7.878906 0.460938 -7.539062 0.984375 -7.625 C 1.515625 -7.707031 2.304688 -8.03125 3.359375 -8.59375 C 4.410156 -9.164062 5.5 -9.816406 6.625 -10.546875 C 7.757812 -11.285156 8.726562 -11.914062 9.53125 -12.4375 C 10.257812 -12.894531 10.679688 -13.144531 10.796875 -13.1875 Z M 10.796875 -13.1875 "/>
      </g>
    </g>
  
    <g transform="translate(294.193852, 184.831802)">
      <g>
        <path d="M 4.5625 -6.8125 L 4.484375 -6.8125 C 1.703125 -6.84375 -0.125 -7.457031 -1 -8.65625 C -1.882812 -9.851562 -1.847656 -11.445312 -0.890625 -13.4375 C -0.0859375 -14.945312 0.925781 -16.269531 2.15625 -17.40625 C 2.570312 -17.789062 3 -18.097656 3.4375 -18.328125 C 3.882812 -18.554688 4.382812 -18.671875 4.9375 -18.671875 C 5.257812 -18.722656 5.632812 -18.664062 6.0625 -18.5 C 6.195312 -18.457031 6.332031 -18.40625 6.46875 -18.34375 C 6.789062 -18.40625 7.101562 -18.515625 7.40625 -18.671875 C 7.488281 -18.722656 7.59375 -18.769531 7.71875 -18.8125 C 8.351562 -19.0625 9.023438 -19.164062 9.734375 -19.125 C 10.023438 -19.125 10.320312 -19.125 10.625 -19.125 C 11.75 -18.945312 12.597656 -18.472656 13.171875 -17.703125 C 13.753906 -16.929688 13.957031 -15.988281 13.78125 -14.875 C 13.6875 -14.207031 13.476562 -13.578125 13.15625 -12.984375 C 10.945312 -9.035156 8.140625 -6.976562 4.734375 -6.8125 Z M 9.109375 -17.09375 C 7.585938 -17.144531 6.238281 -16.707031 5.0625 -15.78125 C 3.882812 -14.851562 3.007812 -13.785156 2.4375 -12.578125 C 1.863281 -11.367188 1.707031 -10.375 1.96875 -9.59375 C 2.226562 -8.820312 3.023438 -8.609375 4.359375 -8.953125 C 5.878906 -9.421875 7.21875 -10.285156 8.375 -11.546875 C 9.53125 -12.804688 10.238281 -14.003906 10.5 -15.140625 C 10.757812 -16.285156 10.296875 -16.9375 9.109375 -17.09375 Z M 8.359375 -28.96875 C 8.859375 -29.78125 9.457031 -30.070312 10.15625 -29.84375 C 10.851562 -29.613281 11.238281 -29.359375 11.3125 -29.078125 C 11.382812 -28.796875 11.332031 -28.5 11.15625 -28.1875 C 10.976562 -27.875 10.78125 -27.570312 10.5625 -27.28125 C 9.96875 -26.507812 9.394531 -25.664062 8.84375 -24.75 C 7.582031 -22.757812 6.726562 -21.84375 6.28125 -22 C 5.84375 -22.15625 5.625 -22.601562 5.625 -23.34375 C 6.1875 -24.53125 6.625 -25.492188 6.9375 -26.234375 C 7.25 -26.972656 7.617188 -27.675781 8.046875 -28.34375 C 8.117188 -28.550781 8.222656 -28.757812 8.359375 -28.96875 Z M 11.828125 -28.140625 C 12.398438 -28.910156 13.023438 -29.144531 13.703125 -28.84375 C 14.390625 -28.550781 14.757812 -28.269531 14.8125 -28 C 14.875 -27.726562 14.796875 -27.4375 14.578125 -27.125 C 14.367188 -26.8125 14.125 -26.519531 13.84375 -26.25 C 13.207031 -25.582031 12.59375 -24.804688 12 -23.921875 C 10.5625 -22.066406 9.625 -21.222656 9.1875 -21.390625 C 8.75 -21.566406 8.550781 -22.023438 8.59375 -22.765625 C 9.28125 -23.921875 9.804688 -24.84375 10.171875 -25.53125 C 10.546875 -26.21875 10.960938 -26.90625 11.421875 -27.59375 C 11.554688 -27.75 11.691406 -27.929688 11.828125 -28.140625 Z M 11.828125 -28.140625 "/>
      </g>
    </g>
  
    <g transform="translate(308.233243, 184.831802)">
      <g>
        <path d="M 20.703125 -14.96875 C 20.796875 -14.96875 20.90625 -14.941406 21.03125 -14.890625 C 21.15625 -14.835938 21.257812 -14.773438 21.34375 -14.703125 C 21.601562 -14.453125 21.628906 -14.15625 21.421875 -13.8125 C 21.148438 -13.519531 20.890625 -13.269531 20.640625 -13.0625 C 19.171875 -11.707031 17.535156 -10.570312 15.734375 -9.65625 C 12.898438 -8.21875 9.78125 -7.476562 6.375 -7.4375 C 5.113281 -7.394531 3.8125 -7.601562 2.46875 -8.0625 C 0.0195312 -9.019531 -0.972656 -10.789062 -0.515625 -13.375 C 0.0351562 -15.769531 1.382812 -17.753906 3.53125 -19.328125 C 5.675781 -20.910156 7.972656 -21.597656 10.421875 -21.390625 C 10.878906 -21.316406 11.335938 -21.210938 11.796875 -21.078125 C 12.222656 -20.898438 12.539062 -20.644531 12.75 -20.3125 C 12.957031 -19.976562 12.976562 -19.707031 12.8125 -19.5 C 12.351562 -19 11.828125 -18.875 11.234375 -19.125 C 10.347656 -19.507812 9.535156 -19.613281 8.796875 -19.4375 C 8.066406 -19.269531 7.328125 -18.867188 6.578125 -18.234375 C 5.847656 -17.679688 5.0625 -16.878906 4.21875 -15.828125 C 3.375 -14.773438 2.835938 -13.710938 2.609375 -12.640625 C 2.378906 -11.566406 2.859375 -10.691406 4.046875 -10.015625 C 5.390625 -9.421875 6.757812 -9.28125 8.15625 -9.59375 C 11.632812 -10.300781 14.867188 -11.617188 17.859375 -13.546875 C 18.128906 -13.679688 18.367188 -13.835938 18.578125 -14.015625 C 18.898438 -14.265625 19.226562 -14.46875 19.5625 -14.625 C 19.90625 -14.789062 20.285156 -14.90625 20.703125 -14.96875 Z M 20.703125 -14.96875 "/>
      </g>
    </g>
  
    <g transform="translate(326.205736, 184.831802)">
      <g>
        <path d="M 4.28125 -11.484375 C 3.570312 -10.972656 3.21875 -10.609375 3.21875 -10.390625 C 3.21875 -10.179688 3.445312 -10.054688 3.90625 -10.015625 C 4.363281 -9.984375 4.867188 -9.96875 5.421875 -9.96875 C 5.597656 -10 5.742188 -10.015625 5.859375 -10.015625 C 7.679688 -9.984375 9.429688 -9.738281 11.109375 -9.28125 C 11.609375 -9.101562 12.097656 -8.863281 12.578125 -8.5625 C 12.617188 -8.519531 12.640625 -8.5 12.640625 -8.5 C 12.710938 -8.457031 12.769531 -8.375 12.8125 -8.25 C 12.863281 -8.125 12.863281 -8.015625 12.8125 -7.921875 C 12.8125 -7.847656 12.753906 -7.773438 12.640625 -7.703125 C 12.535156 -7.640625 12.445312 -7.585938 12.375 -7.546875 C 12.03125 -7.472656 11.695312 -7.457031 11.375 -7.5 C 7.832031 -7.914062 4.289062 -8.101562 0.75 -8.0625 C 0.0703125 -8.0625 -0.617188 -8.0625 -1.328125 -8.0625 C -1.535156 -8.0625 -1.769531 -8.046875 -2.03125 -8.015625 C -2.53125 -7.953125 -2.988281 -7.960938 -3.40625 -8.046875 C -3.832031 -8.140625 -4.113281 -8.460938 -4.25 -9.015625 C -4.320312 -9.441406 -4.207031 -9.75 -3.90625 -9.9375 C -3.613281 -10.125 -3.257812 -10.273438 -2.84375 -10.390625 C -2.550781 -10.492188 -2.28125 -10.617188 -2.03125 -10.765625 C 0.96875 -12.453125 3.859375 -14.3125 6.640625 -16.34375 C 7.765625 -17.144531 8.75 -18.070312 9.59375 -19.125 C 9.84375 -19.445312 9.894531 -19.75 9.75 -20.03125 C 9.601562 -20.3125 9.320312 -20.46875 8.90625 -20.5 C 7.601562 -20.632812 6.335938 -20.53125 5.109375 -20.1875 C 5.066406 -20.1875 5.046875 -20.1875 5.046875 -20.1875 C 4.171875 -19.9375 3.265625 -19.707031 2.328125 -19.5 C 1.867188 -19.425781 1.46875 -19.566406 1.125 -19.921875 C 1.007812 -20.140625 1.015625 -20.367188 1.140625 -20.609375 C 1.265625 -20.847656 1.515625 -21.039062 1.890625 -21.1875 C 4.628906 -22.34375 7.492188 -22.75 10.484375 -22.40625 C 11.191406 -22.289062 11.859375 -22.078125 12.484375 -21.765625 C 13.710938 -21.128906 14.007812 -20.226562 13.375 -19.0625 C 12.664062 -17.800781 11.679688 -16.722656 10.421875 -15.828125 C 8.773438 -14.617188 7.09375 -13.421875 5.375 -12.234375 C 4.988281 -11.984375 4.625 -11.734375 4.28125 -11.484375 Z M 4.28125 -11.484375 "/>
      </g>
    </g>
  
    <g transform="translate(52.52173, 244.859596)">
      <g>
        <path d="M 8.1875 -6.046875 C 8.875 -5.898438 9.421875 -5.5625 9.828125 -5.03125 C 10.242188 -4.5 10.453125 -3.894531 10.453125 -3.21875 C 10.453125 -2.226562 10.109375 -1.441406 9.421875 -0.859375 C 8.734375 -0.285156 7.773438 0 6.546875 0 L 1.046875 0 L 1.046875 -11.796875 L 6.359375 -11.796875 C 7.554688 -11.796875 8.492188 -11.519531 9.171875 -10.96875 C 9.847656 -10.425781 10.1875 -9.6875 10.1875 -8.75 C 10.1875 -8.050781 10.003906 -7.472656 9.640625 -7.015625 C 9.273438 -6.554688 8.789062 -6.234375 8.1875 -6.046875 Z M 3.921875 -7.03125 L 5.796875 -7.03125 C 6.265625 -7.03125 6.625 -7.132812 6.875 -7.34375 C 7.132812 -7.550781 7.265625 -7.851562 7.265625 -8.25 C 7.265625 -8.65625 7.132812 -8.960938 6.875 -9.171875 C 6.625 -9.390625 6.265625 -9.5 5.796875 -9.5 L 3.921875 -9.5 Z M 6.03125 -2.3125 C 6.519531 -2.3125 6.894531 -2.421875 7.15625 -2.640625 C 7.414062 -2.859375 7.546875 -3.175781 7.546875 -3.59375 C 7.546875 -4.007812 7.40625 -4.332031 7.125 -4.5625 C 6.851562 -4.800781 6.476562 -4.921875 6 -4.921875 L 3.921875 -4.921875 L 3.921875 -2.3125 Z M 6.03125 -2.3125 "/>
      </g>
    </g>
  
    <g transform="translate(66.956148, 244.859596)">
      <g>
        <path d="M 3.859375 -11.796875 L 3.859375 -4.734375 C 3.859375 -4.035156 4.03125 -3.492188 4.375 -3.109375 C 4.726562 -2.722656 5.242188 -2.53125 5.921875 -2.53125 C 6.585938 -2.53125 7.097656 -2.722656 7.453125 -3.109375 C 7.816406 -3.492188 8 -4.035156 8 -4.734375 L 8 -11.796875 L 10.875 -11.796875 L 10.875 -4.765625 C 10.875 -3.703125 10.648438 -2.804688 10.203125 -2.078125 C 9.753906 -1.347656 9.148438 -0.796875 8.390625 -0.421875 C 7.640625 -0.0546875 6.800781 0.125 5.875 0.125 C 4.9375 0.125 4.097656 -0.0546875 3.359375 -0.421875 C 2.628906 -0.785156 2.050781 -1.332031 1.625 -2.0625 C 1.195312 -2.800781 0.984375 -3.703125 0.984375 -4.765625 L 0.984375 -11.796875 Z M 3.859375 -11.796875 "/>
      </g>
    </g>
  
    <g transform="translate(82.163423, 244.859596)">
      <g>
        <path d="M 5.3125 0.125 C 4.445312 0.125 3.671875 -0.015625 2.984375 -0.296875 C 2.304688 -0.578125 1.757812 -0.992188 1.34375 -1.546875 C 0.9375 -2.097656 0.722656 -2.757812 0.703125 -3.53125 L 3.765625 -3.53125 C 3.804688 -3.09375 3.957031 -2.757812 4.21875 -2.53125 C 4.476562 -2.300781 4.816406 -2.1875 5.234375 -2.1875 C 5.660156 -2.1875 5.992188 -2.285156 6.234375 -2.484375 C 6.484375 -2.679688 6.609375 -2.953125 6.609375 -3.296875 C 6.609375 -3.585938 6.507812 -3.828125 6.3125 -4.015625 C 6.113281 -4.203125 5.867188 -4.359375 5.578125 -4.484375 C 5.296875 -4.609375 4.894531 -4.75 4.375 -4.90625 C 3.613281 -5.144531 2.988281 -5.378906 2.5 -5.609375 C 2.019531 -5.847656 1.601562 -6.195312 1.25 -6.65625 C 0.90625 -7.113281 0.734375 -7.710938 0.734375 -8.453125 C 0.734375 -9.554688 1.128906 -10.414062 1.921875 -11.03125 C 2.722656 -11.65625 3.765625 -11.96875 5.046875 -11.96875 C 6.347656 -11.96875 7.394531 -11.65625 8.1875 -11.03125 C 8.976562 -10.414062 9.40625 -9.550781 9.46875 -8.4375 L 6.359375 -8.4375 C 6.335938 -8.820312 6.195312 -9.125 5.9375 -9.34375 C 5.675781 -9.5625 5.34375 -9.671875 4.9375 -9.671875 C 4.59375 -9.671875 4.3125 -9.578125 4.09375 -9.390625 C 3.882812 -9.203125 3.78125 -8.9375 3.78125 -8.59375 C 3.78125 -8.207031 3.957031 -7.90625 4.3125 -7.6875 C 4.675781 -7.476562 5.238281 -7.253906 6 -7.015625 C 6.757812 -6.753906 7.378906 -6.503906 7.859375 -6.265625 C 8.335938 -6.035156 8.75 -5.695312 9.09375 -5.25 C 9.4375 -4.800781 9.609375 -4.222656 9.609375 -3.515625 C 9.609375 -2.835938 9.4375 -2.222656 9.09375 -1.671875 C 8.757812 -1.128906 8.265625 -0.691406 7.609375 -0.359375 C 6.960938 -0.0351562 6.195312 0.125 5.3125 0.125 Z M 5.3125 0.125 "/>
      </g>
    </g>
  
    <g transform="translate(95.858566, 244.859596)">
      <g>
        <path d="M 3.921875 -11.796875 L 3.921875 0 L 1.046875 0 L 1.046875 -11.796875 Z M 3.921875 -11.796875 "/>
      </g>
    </g>
  
    <g transform="translate(104.177255, 244.859596)">
      <g>
        <path d="M 11.59375 0 L 8.71875 0 L 3.921875 -7.28125 L 3.921875 0 L 1.046875 0 L 1.046875 -11.796875 L 3.921875 -11.796875 L 8.71875 -4.484375 L 8.71875 -11.796875 L 11.59375 -11.796875 Z M 11.59375 0 "/>
      </g>
    </g>
  
    <g transform="translate(120.174204, 244.859596)">
      <g>
        <path d="M 3.921875 -9.5 L 3.921875 -7.109375 L 7.765625 -7.109375 L 7.765625 -4.890625 L 3.921875 -4.890625 L 3.921875 -2.296875 L 8.265625 -2.296875 L 8.265625 0 L 1.046875 0 L 1.046875 -11.796875 L 8.265625 -11.796875 L 8.265625 -9.5 Z M 3.921875 -9.5 "/>
      </g>
    </g>
  
    <g transform="translate(132.62605, 244.859596)">
      <g>
        <path d="M 5.3125 0.125 C 4.445312 0.125 3.671875 -0.015625 2.984375 -0.296875 C 2.304688 -0.578125 1.757812 -0.992188 1.34375 -1.546875 C 0.9375 -2.097656 0.722656 -2.757812 0.703125 -3.53125 L 3.765625 -3.53125 C 3.804688 -3.09375 3.957031 -2.757812 4.21875 -2.53125 C 4.476562 -2.300781 4.816406 -2.1875 5.234375 -2.1875 C 5.660156 -2.1875 5.992188 -2.285156 6.234375 -2.484375 C 6.484375 -2.679688 6.609375 -2.953125 6.609375 -3.296875 C 6.609375 -3.585938 6.507812 -3.828125 6.3125 -4.015625 C 6.113281 -4.203125 5.867188 -4.359375 5.578125 -4.484375 C 5.296875 -4.609375 4.894531 -4.75 4.375 -4.90625 C 3.613281 -5.144531 2.988281 -5.378906 2.5 -5.609375 C 2.019531 -5.847656 1.601562 -6.195312 1.25 -6.65625 C 0.90625 -7.113281 0.734375 -7.710938 0.734375 -8.453125 C 0.734375 -9.554688 1.128906 -10.414062 1.921875 -11.03125 C 2.722656 -11.65625 3.765625 -11.96875 5.046875 -11.96875 C 6.347656 -11.96875 7.394531 -11.65625 8.1875 -11.03125 C 8.976562 -10.414062 9.40625 -9.550781 9.46875 -8.4375 L 6.359375 -8.4375 C 6.335938 -8.820312 6.195312 -9.125 5.9375 -9.34375 C 5.675781 -9.5625 5.34375 -9.671875 4.9375 -9.671875 C 4.59375 -9.671875 4.3125 -9.578125 4.09375 -9.390625 C 3.882812 -9.203125 3.78125 -8.9375 3.78125 -8.59375 C 3.78125 -8.207031 3.957031 -7.90625 4.3125 -7.6875 C 4.675781 -7.476562 5.238281 -7.253906 6 -7.015625 C 6.757812 -6.753906 7.378906 -6.503906 7.859375 -6.265625 C 8.335938 -6.035156 8.75 -5.695312 9.09375 -5.25 C 9.4375 -4.800781 9.609375 -4.222656 9.609375 -3.515625 C 9.609375 -2.835938 9.4375 -2.222656 9.09375 -1.671875 C 8.757812 -1.128906 8.265625 -0.691406 7.609375 -0.359375 C 6.960938 -0.0351562 6.195312 0.125 5.3125 0.125 Z M 5.3125 0.125 "/>
      </g>
    </g>
  
    <g transform="translate(146.321198, 244.859596)">
      <g>
        <path d="M 5.3125 0.125 C 4.445312 0.125 3.671875 -0.015625 2.984375 -0.296875 C 2.304688 -0.578125 1.757812 -0.992188 1.34375 -1.546875 C 0.9375 -2.097656 0.722656 -2.757812 0.703125 -3.53125 L 3.765625 -3.53125 C 3.804688 -3.09375 3.957031 -2.757812 4.21875 -2.53125 C 4.476562 -2.300781 4.816406 -2.1875 5.234375 -2.1875 C 5.660156 -2.1875 5.992188 -2.285156 6.234375 -2.484375 C 6.484375 -2.679688 6.609375 -2.953125 6.609375 -3.296875 C 6.609375 -3.585938 6.507812 -3.828125 6.3125 -4.015625 C 6.113281 -4.203125 5.867188 -4.359375 5.578125 -4.484375 C 5.296875 -4.609375 4.894531 -4.75 4.375 -4.90625 C 3.613281 -5.144531 2.988281 -5.378906 2.5 -5.609375 C 2.019531 -5.847656 1.601562 -6.195312 1.25 -6.65625 C 0.90625 -7.113281 0.734375 -7.710938 0.734375 -8.453125 C 0.734375 -9.554688 1.128906 -10.414062 1.921875 -11.03125 C 2.722656 -11.65625 3.765625 -11.96875 5.046875 -11.96875 C 6.347656 -11.96875 7.394531 -11.65625 8.1875 -11.03125 C 8.976562 -10.414062 9.40625 -9.550781 9.46875 -8.4375 L 6.359375 -8.4375 C 6.335938 -8.820312 6.195312 -9.125 5.9375 -9.34375 C 5.675781 -9.5625 5.34375 -9.671875 4.9375 -9.671875 C 4.59375 -9.671875 4.3125 -9.578125 4.09375 -9.390625 C 3.882812 -9.203125 3.78125 -8.9375 3.78125 -8.59375 C 3.78125 -8.207031 3.957031 -7.90625 4.3125 -7.6875 C 4.675781 -7.476562 5.238281 -7.253906 6 -7.015625 C 6.757812 -6.753906 7.378906 -6.503906 7.859375 -6.265625 C 8.335938 -6.035156 8.75 -5.695312 9.09375 -5.25 C 9.4375 -4.800781 9.609375 -4.222656 9.609375 -3.515625 C 9.609375 -2.835938 9.4375 -2.222656 9.09375 -1.671875 C 8.757812 -1.128906 8.265625 -0.691406 7.609375 -0.359375 C 6.960938 -0.0351562 6.195312 0.125 5.3125 0.125 Z M 5.3125 0.125 "/>
      </g>
    </g>
  
    <g transform="translate(160.016346, 244.859596)">
      <g/>
    </g>
  
    <g transform="translate(166.940517, 244.859596)">
      <g>
        <path d="M 0.5625 -5.921875 C 0.5625 -7.085938 0.8125 -8.125 1.3125 -9.03125 C 1.8125 -9.945312 2.515625 -10.660156 3.421875 -11.171875 C 4.328125 -11.679688 5.347656 -11.9375 6.484375 -11.9375 C 7.890625 -11.9375 9.085938 -11.566406 10.078125 -10.828125 C 11.078125 -10.085938 11.75 -9.078125 12.09375 -7.796875 L 8.921875 -7.796875 C 8.691406 -8.296875 8.359375 -8.671875 7.921875 -8.921875 C 7.492188 -9.179688 7.003906 -9.3125 6.453125 -9.3125 C 5.566406 -9.3125 4.847656 -9.003906 4.296875 -8.390625 C 3.753906 -7.773438 3.484375 -6.953125 3.484375 -5.921875 C 3.484375 -4.890625 3.753906 -4.0625 4.296875 -3.4375 C 4.847656 -2.820312 5.566406 -2.515625 6.453125 -2.515625 C 7.003906 -2.515625 7.492188 -2.644531 7.921875 -2.90625 C 8.359375 -3.164062 8.691406 -3.539062 8.921875 -4.03125 L 12.09375 -4.03125 C 11.75 -2.757812 11.078125 -1.753906 10.078125 -1.015625 C 9.085938 -0.285156 7.890625 0.078125 6.484375 0.078125 C 5.347656 0.078125 4.328125 -0.175781 3.421875 -0.6875 C 2.515625 -1.195312 1.8125 -1.90625 1.3125 -2.8125 C 0.8125 -3.71875 0.5625 -4.753906 0.5625 -5.921875 Z M 0.5625 -5.921875 "/>
      </g>
    </g>
  
    <g transform="translate(183.105475, 244.859596)">
      <g>
        <path d="M 6.625 0.125 C 5.507812 0.125 4.488281 -0.128906 3.5625 -0.640625 C 2.644531 -1.160156 1.914062 -1.882812 1.375 -2.8125 C 0.832031 -3.738281 0.5625 -4.78125 0.5625 -5.9375 C 0.5625 -7.09375 0.832031 -8.128906 1.375 -9.046875 C 1.914062 -9.960938 2.644531 -10.675781 3.5625 -11.1875 C 4.488281 -11.707031 5.507812 -11.96875 6.625 -11.96875 C 7.726562 -11.96875 8.742188 -11.707031 9.671875 -11.1875 C 10.597656 -10.675781 11.328125 -9.960938 11.859375 -9.046875 C 12.390625 -8.128906 12.65625 -7.09375 12.65625 -5.9375 C 12.65625 -4.78125 12.382812 -3.738281 11.84375 -2.8125 C 11.3125 -1.882812 10.582031 -1.160156 9.65625 -0.640625 C 8.738281 -0.128906 7.726562 0.125 6.625 0.125 Z M 6.625 -2.5 C 7.5625 -2.5 8.3125 -2.8125 8.875 -3.4375 C 9.445312 -4.070312 9.734375 -4.90625 9.734375 -5.9375 C 9.734375 -6.976562 9.445312 -7.804688 8.875 -8.421875 C 8.3125 -9.046875 7.5625 -9.359375 6.625 -9.359375 C 5.664062 -9.359375 4.90625 -9.050781 4.34375 -8.4375 C 3.78125 -7.820312 3.5 -6.988281 3.5 -5.9375 C 3.5 -4.894531 3.78125 -4.0625 4.34375 -3.4375 C 4.90625 -2.8125 5.664062 -2.5 6.625 -2.5 Z M 6.625 -2.5 "/>
      </g>
    </g>
  
    <g transform="translate(199.673685, 244.859596)">
      <g>
        <path d="M 11.59375 0 L 8.71875 0 L 3.921875 -7.28125 L 3.921875 0 L 1.046875 0 L 1.046875 -11.796875 L 3.921875 -11.796875 L 8.71875 -4.484375 L 8.71875 -11.796875 L 11.59375 -11.796875 Z M 11.59375 0 "/>
      </g>
    </g>
  
    <g transform="translate(215.670624, 244.859596)">
      <g>
        <path d="M 5.3125 0.125 C 4.445312 0.125 3.671875 -0.015625 2.984375 -0.296875 C 2.304688 -0.578125 1.757812 -0.992188 1.34375 -1.546875 C 0.9375 -2.097656 0.722656 -2.757812 0.703125 -3.53125 L 3.765625 -3.53125 C 3.804688 -3.09375 3.957031 -2.757812 4.21875 -2.53125 C 4.476562 -2.300781 4.816406 -2.1875 5.234375 -2.1875 C 5.660156 -2.1875 5.992188 -2.285156 6.234375 -2.484375 C 6.484375 -2.679688 6.609375 -2.953125 6.609375 -3.296875 C 6.609375 -3.585938 6.507812 -3.828125 6.3125 -4.015625 C 6.113281 -4.203125 5.867188 -4.359375 5.578125 -4.484375 C 5.296875 -4.609375 4.894531 -4.75 4.375 -4.90625 C 3.613281 -5.144531 2.988281 -5.378906 2.5 -5.609375 C 2.019531 -5.847656 1.601562 -6.195312 1.25 -6.65625 C 0.90625 -7.113281 0.734375 -7.710938 0.734375 -8.453125 C 0.734375 -9.554688 1.128906 -10.414062 1.921875 -11.03125 C 2.722656 -11.65625 3.765625 -11.96875 5.046875 -11.96875 C 6.347656 -11.96875 7.394531 -11.65625 8.1875 -11.03125 C 8.976562 -10.414062 9.40625 -9.550781 9.46875 -8.4375 L 6.359375 -8.4375 C 6.335938 -8.820312 6.195312 -9.125 5.9375 -9.34375 C 5.675781 -9.5625 5.34375 -9.671875 4.9375 -9.671875 C 4.59375 -9.671875 4.3125 -9.578125 4.09375 -9.390625 C 3.882812 -9.203125 3.78125 -8.9375 3.78125 -8.59375 C 3.78125 -8.207031 3.957031 -7.90625 4.3125 -7.6875 C 4.675781 -7.476562 5.238281 -7.253906 6 -7.015625 C 6.757812 -6.753906 7.378906 -6.503906 7.859375 -6.265625 C 8.335938 -6.035156 8.75 -5.695312 9.09375 -5.25 C 9.4375 -4.800781 9.609375 -4.222656 9.609375 -3.515625 C 9.609375 -2.835938 9.4375 -2.222656 9.09375 -1.671875 C 8.757812 -1.128906 8.265625 -0.691406 7.609375 -0.359375 C 6.960938 -0.0351562 6.195312 0.125 5.3125 0.125 Z M 5.3125 0.125 "/>
      </g>
    </g>
  
    <g transform="translate(229.365762, 244.859596)">
      <g>
        <path d="M 3.859375 -11.796875 L 3.859375 -4.734375 C 3.859375 -4.035156 4.03125 -3.492188 4.375 -3.109375 C 4.726562 -2.722656 5.242188 -2.53125 5.921875 -2.53125 C 6.585938 -2.53125 7.097656 -2.722656 7.453125 -3.109375 C 7.816406 -3.492188 8 -4.035156 8 -4.734375 L 8 -11.796875 L 10.875 -11.796875 L 10.875 -4.765625 C 10.875 -3.703125 10.648438 -2.804688 10.203125 -2.078125 C 9.753906 -1.347656 9.148438 -0.796875 8.390625 -0.421875 C 7.640625 -0.0546875 6.800781 0.125 5.875 0.125 C 4.9375 0.125 4.097656 -0.0546875 3.359375 -0.421875 C 2.628906 -0.785156 2.050781 -1.332031 1.625 -2.0625 C 1.195312 -2.800781 0.984375 -3.703125 0.984375 -4.765625 L 0.984375 -11.796875 Z M 3.859375 -11.796875 "/>
      </g>
    </g>
  
    <g transform="translate(244.57303, 244.859596)">
      <g>
        <path d="M 3.921875 -2.21875 L 7.6875 -2.21875 L 7.6875 0 L 1.046875 0 L 1.046875 -11.796875 L 3.921875 -11.796875 Z M 3.921875 -2.21875 "/>
      </g>
    </g>
  
    <g transform="translate(255.949575, 244.859596)">
      <g>
        <path d="M 9.53125 -11.796875 L 9.53125 -9.5 L 6.40625 -9.5 L 6.40625 0 L 3.53125 0 L 3.53125 -9.5 L 0.40625 -9.5 L 0.40625 -11.796875 Z M 9.53125 -11.796875 "/>
      </g>
    </g>
  
    <g transform="translate(269.241482, 244.859596)">
      <g>
        <path d="M 8.390625 -2.078125 L 3.984375 -2.078125 L 3.28125 0 L 0.265625 0 L 4.546875 -11.796875 L 7.875 -11.796875 L 12.140625 0 L 9.09375 0 Z M 7.65625 -4.296875 L 6.1875 -8.625 L 4.734375 -4.296875 Z M 7.65625 -4.296875 "/>
      </g>
    </g>
  
    <g transform="translate(284.986405, 244.859596)">
      <g>
        <path d="M 11.59375 0 L 8.71875 0 L 3.921875 -7.28125 L 3.921875 0 L 1.046875 0 L 1.046875 -11.796875 L 3.921875 -11.796875 L 8.71875 -4.484375 L 8.71875 -11.796875 L 11.59375 -11.796875 Z M 11.59375 0 "/>
      </g>
    </g>
  
    <g transform="translate(300.983344, 244.859596)">
      <g>
        <path d="M 9.53125 -11.796875 L 9.53125 -9.5 L 6.40625 -9.5 L 6.40625 0 L 3.53125 0 L 3.53125 -9.5 L 0.40625 -9.5 L 0.40625 -11.796875 Z M 9.53125 -11.796875 "/>
      </g>
    </g>
  </g>
</svg>