<?xml version="1.0" encoding="utf-8"?>
<svg viewBox="0 0 256 256" width="256" height="256" xmlns="http://www.w3.org/2000/svg">
  <ellipse style="stroke: #ffffff; fill: none; stroke-width: 4px;" cx="131" cy="128" rx="117" ry="117" transform="matrix(1, 0, 0, 1, 0, 1.4210854715202004e-14)"/>
  <g fill="#ffffff" fill-opacity="1" transform="matrix(1, 0, 0, 1, 33.35418037635621, -58.4005678415467)">
    <g transform="matrix(1.642554, 0, 0, 1.642554, -30.089093, 238.327171)" style="">
      <g>
        <path d="M 150.681 13.654 C 154.931 14.017 153.651 15.729 145.705 15.136 C 134.588 14.362 138.352 15.148 127.188 14.734 C 119.188 14.441 111.188 14.227 103.188 14.094 C 102.301 14.063 101.41 14.047 100.516 14.047 C 99.586 14.047 98.688 14.023 97.813 13.984 C 92.375 13.848 86.938 13.781 81.5 13.781 L 81.391 13.781 C 78.191 13.781 75.008 13.848 71.844 13.984 C 70.656 14.023 69.5 14.047 68.375 14.047 C 66.938 14.078 65.484 14.352 64.016 14.875 C 52.961 18.738 41.801 21.582 30.531 23.406 C 27.27 23.938 24.02 24.383 20.781 24.75 C 17.551 25.113 14.313 25.297 11.063 25.297 C 10.008 25.297 8.953 25.281 7.891 25.25 C 6.305 25.25 4.773 25.035 3.297 24.609 C 2.703 24.473 2.148 24.281 1.641 24.031 C 1.18 23.863 0.789 23.617 0.469 23.297 C 0.156 22.984 0.02 22.551 0.063 22 C 0.156 21.457 0.391 20.992 0.766 20.609 C 1.141 20.234 1.563 19.922 2.031 19.672 C 3.508 18.828 5.063 18.266 6.688 17.984 C 7.488 17.766 8.313 17.57 9.156 17.406 C 11.895 16.77 14.656 16.242 17.438 15.828 C 28.551 14.18 39.633 13.109 50.688 12.609 C 51.352 12.547 52.004 12.5 52.641 12.469 C 56.047 12.289 59.453 12.145 62.859 12.031 C 64.086 11.988 65.313 11.758 66.531 11.344 C 70.75 9.77 74.898 8.016 78.984 6.078 C 83.078 4.148 87.07 1.961 90.969 -0.484 C 94.227 -2.461 97.227 -4.801 99.969 -7.5 C 101.52 -8.969 102.781 -10.629 103.75 -12.484 C 105.051 -15.191 104.813 -17.531 103.031 -19.5 C 101.77 -20.801 100.281 -21.816 98.563 -22.547 C 96.281 -23.598 93.91 -24.437 91.453 -25.062 C 88.992 -25.695 86.5 -26.242 83.969 -26.703 C 76.813 -27.867 69.508 -28.586 62.063 -28.859 C 61.789 -28.859 61.531 -28.859 61.281 -28.859 C 60.988 -28.859 60.691 -28.859 60.391 -28.859 C 59.754 -28.766 59.273 -28.383 58.953 -27.719 C 58.785 -27.426 58.633 -27.145 58.5 -26.875 C 58.176 -26.25 57.836 -25.617 57.484 -24.984 C 54.848 -19.641 52.219 -14.316 49.594 -9.016 C 47.414 -4.492 45.203 -0.004 42.953 4.453 C 42.922 4.617 42.863 4.758 42.781 4.875 C 42.52 5.438 42.223 5.969 41.891 6.469 C 41.516 6.883 41.078 7.055 40.578 6.984 C 40.273 7.016 39.977 6.992 39.688 6.922 C 39.164 6.648 38.992 6.25 39.172 5.719 C 39.629 4.531 40.133 3.367 40.688 2.234 C 44.02 -4.848 47.352 -11.898 50.688 -18.922 C 51.781 -21.16 52.852 -23.391 53.906 -25.609 C 53.977 -25.828 54.063 -26.02 54.156 -26.187 C 54.406 -26.707 54.633 -27.219 54.844 -27.719 C 55.133 -28.477 54.906 -28.879 54.156 -28.922 C 53.781 -28.953 53.398 -28.969 53.016 -28.969 C 52.516 -29.008 52.023 -29.051 51.547 -29.094 C 51.473 -29.094 51.367 -29.094 51.234 -29.094 C 50.66 -29.145 50.117 -29.242 49.609 -29.391 C 49.098 -29.535 48.797 -29.926 48.703 -30.562 C 48.703 -31.27 48.945 -31.797 49.438 -32.141 C 49.926 -32.484 50.469 -32.758 51.063 -32.969 C 51.27 -33.039 51.461 -33.098 51.641 -33.141 C 53.223 -33.805 54.836 -34.398 56.484 -34.922 C 56.66 -34.992 56.852 -35.051 57.063 -35.094 C 58.32 -35.477 59.27 -36.281 59.906 -37.5 C 62.719 -42.844 65.539 -48.176 68.375 -53.5 C 69.332 -55.332 70.316 -57.195 71.328 -59.094 C 71.461 -59.363 71.586 -59.625 71.703 -59.875 C 71.953 -60.406 72.25 -60.93 72.594 -61.453 C 73.02 -62.086 73.566 -62.336 74.234 -62.203 C 74.535 -62.242 74.832 -62.223 75.125 -62.141 C 75.758 -61.859 75.953 -61.367 75.703 -60.672 C 75.703 -60.641 75.68 -60.625 75.641 -60.625 C 75.16 -59.187 74.586 -57.797 73.922 -56.453 C 72.273 -53.223 70.586 -49.977 68.859 -46.719 C 68.328 -45.625 67.766 -44.535 67.172 -43.453 C 66.859 -42.891 66.563 -42.344 66.281 -41.812 C 65.781 -40.875 65.289 -39.926 64.813 -38.969 C 64.813 -38.969 64.789 -38.941 64.75 -38.891 C 64.676 -38.734 64.613 -38.566 64.563 -38.391 C 64.52 -38.223 64.602 -38.098 64.813 -38.016 C 64.945 -37.961 65.082 -37.914 65.219 -37.875 L 65.328 -37.937 C 65.578 -37.988 65.859 -38.055 66.172 -38.141 C 66.242 -38.172 66.316 -38.207 66.391 -38.25 C 75.617 -41.156 84.836 -44.172 94.047 -47.297 C 103.254 -50.422 112.406 -53.77 121.5 -57.344 C 121.707 -57.426 121.898 -57.484 122.078 -57.516 C 124.848 -58.672 127.613 -59.828 130.375 -60.984 C 133.133 -62.141 135.863 -63.391 138.563 -64.734 C 140.57 -65.703 142.469 -66.859 144.25 -68.203 C 148.039 -71.285 148.203 -74.039 144.734 -76.469 C 143.109 -77.582 141.332 -78.43 139.406 -79.016 C 137.477 -79.598 135.508 -80.016 133.5 -80.266 C 128.695 -80.992 123.836 -81.359 118.922 -81.359 L 118.828 -81.359 C 114.078 -81.316 109.281 -81.086 104.438 -80.672 C 93.695 -79.734 82.977 -77.91 72.281 -75.203 C 62.414 -72.773 52.75 -69.457 43.281 -65.25 C 40.789 -64.156 38.367 -62.91 36.016 -61.516 C 35.336 -61.086 34.664 -60.703 34 -60.359 C 33.613 -60.211 33.25 -60.176 32.906 -60.25 C 32.445 -60.176 32.078 -60.301 31.797 -60.625 C 31.578 -60.926 31.563 -61.203 31.75 -61.453 C 31.945 -61.703 32.191 -61.914 32.484 -62.094 C 34.504 -63.52 36.609 -64.711 38.797 -65.672 C 38.836 -65.672 38.875 -65.691 38.906 -65.734 C 47.852 -69.941 57 -73.312 66.344 -75.844 C 79.813 -79.551 93.352 -81.867 106.969 -82.797 C 111.176 -83.098 115.367 -83.25 119.547 -83.25 C 124.086 -83.289 128.586 -83.062 133.047 -82.562 C 137.254 -82.145 141.254 -81.164 145.047 -79.625 C 146.828 -78.957 148.367 -77.953 149.672 -76.609 C 150.766 -75.43 151.25 -74.129 151.125 -72.703 C 151 -71.273 150.305 -69.863 149.047 -68.469 C 147.43 -66.852 145.641 -65.52 143.672 -64.469 C 141.273 -63.125 138.832 -61.906 136.344 -60.812 C 133.852 -59.727 131.348 -58.676 128.828 -57.656 C 128.742 -57.625 128.641 -57.578 128.516 -57.516 C 119.703 -53.898 110.82 -50.547 101.875 -47.453 C 92.926 -44.359 83.941 -41.379 74.922 -38.516 C 73.41 -38.016 71.898 -37.504 70.391 -36.984 C 68.285 -36.273 66.176 -35.586 64.063 -34.922 C 63.145 -34.711 62.41 -34.203 61.859 -33.391 C 61.398 -32.629 61.195 -32.035 61.25 -31.609 C 61.313 -31.191 61.789 -30.961 62.688 -30.922 C 65.082 -30.848 67.477 -30.727 69.875 -30.562 C 70.039 -30.562 70.191 -30.562 70.328 -30.562 C 74.867 -30.27 79.348 -29.781 83.766 -29.094 C 88.191 -28.414 92.508 -27.426 96.719 -26.125 C 98.539 -25.539 100.289 -24.875 101.969 -24.125 C 103.102 -23.602 104.176 -22.973 105.188 -22.234 C 109.531 -18.859 109.848 -14.613 106.141 -9.5 C 104.91 -7.82 103.504 -6.289 101.922 -4.906 C 97.992 -1.539 93.781 1.363 89.281 3.813 C 85.395 5.957 81.453 7.941 77.453 9.766 C 76.992 9.922 76.516 10.129 76.016 10.391 C 75.766 10.504 75.488 10.629 75.188 10.766 C 75.426 11.148 75.648 11.379 75.859 11.453 C 76.078 11.535 76.32 11.555 76.594 11.516 C 76.594 11.516 76.609 11.516 76.641 11.516 C 77.348 11.555 78.039 11.578 78.719 11.578 L 78.797 11.578 C 79.254 11.578 79.711 11.555 80.172 11.516 C 82.285 11.516 84.395 11.516 86.5 11.516 C 99 11.555 111.441 11.832 123.828 12.344 C 137.305 12.801 137.314 12.466 150.681 13.654 Z M 56.422 -31.391 C 56.504 -31.422 56.586 -31.5 56.672 -31.625 C 56.754 -31.75 56.816 -31.852 56.859 -31.937 C 56.859 -32.031 56.836 -32.094 56.797 -32.125 C 56.766 -32.164 56.695 -32.234 56.594 -32.328 C 56.594 -32.328 56.578 -32.348 56.547 -32.391 C 56.086 -32.297 55.664 -32.066 55.281 -31.703 C 55.207 -31.609 55.176 -31.508 55.188 -31.406 C 55.207 -31.301 55.285 -31.25 55.422 -31.25 C 55.742 -31.25 56.078 -31.297 56.422 -31.391 Z M 53.266 15.766 C 53.348 15.703 53.438 15.672 53.531 15.672 C 53.688 15.641 53.848 15.57 54.016 15.469 C 54.191 15.363 54.316 15.203 54.391 14.984 C 54.316 14.816 54.238 14.711 54.156 14.672 C 54.102 14.672 54.055 14.672 54.016 14.672 C 43.828 15.129 33.613 15.992 23.375 17.266 C 18.32 17.859 13.285 18.805 8.266 20.109 C 8.148 20.16 8.023 20.207 7.891 20.25 C 7.016 20.414 6.223 20.77 5.516 21.313 C 5.336 21.445 5.223 21.594 5.172 21.75 C 5.129 21.914 5.211 22.066 5.422 22.203 C 5.848 22.367 6.301 22.508 6.781 22.625 C 8.406 22.938 10.063 23.094 11.75 23.094 C 13.188 23.094 14.617 23.023 16.047 22.891 C 28.516 21.836 40.922 19.461 53.266 15.766 Z M 53.266 15.766"/>
      </g>
    </g>
  </g>
</svg>